<?xml version="1.0" encoding="UTF-8"?><svg id="Layer_2" xmlns="http://www.w3.org/2000/svg" viewBox="0 0 3658.67 801.76"><defs><style>.cls-1{fill:#22a2bf;}.cls-2{fill:#57d8e5;}</style></defs><g id="Layer_1-2"><path class="cls-1" d="m1479.25,268.21c-3.77-8.47-9.08-15.41-15.85-20.78-7.25-5.74-16.09-8.65-26.29-8.65h-5.91c-10.21,0-19.05,2.91-26.28,8.65-6.78,5.37-12.09,12.32-15.79,20.65l-150.7,355.78c-2.45,5.86-3.63,10.8-3.63,15.15,0,9.75,3.29,18.1,9.77,24.83,6.58,6.83,15.11,10.29,25.35,10.29,7.17,0,13.81-1.96,19.73-5.82,5.89-3.85,10.41-9.13,13.43-15.7l.06-.14.06-.14,36.21-86.9h189.47l36.21,86.9.06.15.07.14c3.04,6.58,7.56,11.86,13.43,15.69,5.91,3.86,12.55,5.82,19.73,5.82,10.24,0,18.77-3.46,25.35-10.29,6.49-6.74,9.78-15.1,9.78-24.84,0-4.31-1.18-9.25-3.61-15.09l-150.67-355.7Zm21.86,231.1h-133.91l66.95-161.19,66.95,161.19Z"/><path class="cls-1" d="m1765.82,294.35c6.4-5.94,16.68-8.95,30.53-8.95.44.02,2.96.22,14.39,1.64,5.21,1.26,10.3,1.9,15.14,1.9,8.3,0,15.55-3.17,21.53-9.43,5.88-6.15,8.87-13.4,8.87-21.56,0-6.06-1.79-11.76-5.33-16.93-3.4-4.94-7.76-8.76-12.97-11.38-16.9-8.45-35.48-12.72-55.23-12.72-16.24,0-31.95,3.79-46.7,11.26-15.07,7.65-27.41,19.94-36.68,36.54-9.15,16.38-13.78,37.36-13.78,62.36v25.72h-26.31c-8.55,0-16,2.98-22.15,8.87-6.26,6-9.43,13.64-9.43,22.72s3.13,16.13,9.3,22.29c6.16,6.16,13.66,9.29,22.28,9.29h26.31v223.04c0,9.81,3.43,18.2,10.19,24.95,6.75,6.75,15.14,10.18,24.94,10.18s18.17-3.39,25.12-10.06c7.03-6.77,10.6-15.2,10.6-25.06v-223.04h65.31c9.08,0,16.73-3.17,22.71-9.43,5.88-6.15,8.87-13.6,8.87-22.15,0-9-3.03-16.59-8.99-22.58-5.99-5.98-13.59-9.01-22.59-9.01h-65.31v-23.95c0-16.89,3.24-28.81,9.38-34.5Z"/><path class="cls-1" d="m2059.57,607.42c-3.38,0-6.21.26-8.63.79-1.87.42-3.62.83-5.25,1.23l-.2.05-.2.06c-7.05,2.11-14.18,3.18-21.18,3.18-9.48,0-17.31-1.71-23.26-5.09-4.26-2.41-6.6-10.16-6.6-21.81v-169.87h58.21c9.08,0,16.73-3.17,22.71-9.43,5.88-6.15,8.87-13.6,8.87-22.15,0-9-3.03-16.59-8.99-22.58-5.99-5.98-13.59-9.01-22.59-9.01h-58.21v-38.72c0-5.26-1.9-10.11-5.5-14.04-3.8-4.14-8.73-6.32-14.28-6.32s-10.89,2.63-16.08,7.82l-79.96,78.2c-6.76,5.47-8.2,11.95-8.2,16.46,0,5.42,1.99,10.27,5.76,14.03,3.74,3.75,8.59,5.74,14.01,5.74h33.4v174.6c0,39.47,16.45,86.53,94.8,86.53,18.49,0,36.2-3.84,52.62-11.42l.19-.09.19-.1c15.02-7.84,18.18-19.69,18.18-28.25s-3.16-15.53-9.15-21.25c-5.97-5.69-12.92-8.57-20.67-8.57Z"/><path class="cls-1" d="m2333.18,368.61c-22.56-14.41-49.55-21.72-80.22-21.72-32.72,0-60.78,7.86-83.4,23.35-22.53,15.43-39.44,35.94-50.27,60.96-10.66,24.59-16.07,51.77-16.07,80.79,0,51.72,14.44,92.6,42.93,121.49,28.5,28.93,68.41,43.6,118.62,43.6,24.3,0,44.58-2.3,60.27-6.83,15.53-4.5,31.45-11.31,47.32-20.26,16.3-9.41,19.7-21.12,19.7-29.3,0-9.02-3.41-16.91-9.85-22.83-6.34-5.81-13.85-8.75-22.32-8.75-5.24,0-10.1,1.1-14.44,3.26-11.24,5.62-22.89,9.98-34.62,12.95-11.64,2.96-25.54,4.46-41.32,4.46-28.82,0-51.36-7.03-67-20.89-13.82-12.25-22.53-28.49-26.47-49.46h190.36c10.64,0,19.37-3.47,25.95-10.3,6.49-6.74,9.77-15.09,9.77-24.83,0-27.94-5.85-54.14-17.4-77.88-11.68-23.98-29.02-43.44-51.53-57.82Zm-116.16,49.2c11.79-5.54,23.88-8.34,35.95-8.34s24.16,2.81,35.95,8.34c11.54,5.42,21.42,14.08,29.36,25.73,6.54,9.59,10.8,21.37,12.7,35.09h-155.44c1.87-13.75,6.05-25.55,12.46-35.16,7.74-11.61,17.5-20.25,29.02-25.66Z"/><path class="cls-1" d="m2613.92,346.89h-2.95c-30.61,0-58.85,13.61-84.21,40.52v-1.85c0-9.8-3.53-18.29-10.48-25.24-6.95-6.95-15.45-10.48-25.24-10.48s-18.3,3.57-25.06,10.6c-6.67,6.93-10.06,15.38-10.06,25.12v253.44c0,9.81,3.43,18.2,10.19,24.95,6.75,6.75,15.14,10.18,24.94,10.18s18.17-3.39,25.12-10.06c7.03-6.77,10.6-15.2,10.6-25.06v-176.99c9.62-13.99,21.51-25.2,35.37-33.35,14.36-8.43,30.39-12.71,47.66-12.71h2.95c10.06,0,18.56-3.15,25.29-9.35,6.92-6.39,10.43-14.66,10.43-24.59s-3.29-18.08-9.77-24.83c-6.59-6.84-14.92-10.3-24.77-10.3Z"/><path class="cls-1" d="m2958.74,600.33h-184.64v-325.83c0-9.8-3.53-18.29-10.48-25.24-6.95-6.95-15.45-10.48-25.24-10.48s-18.3,3.57-25.06,10.6c-6.67,6.93-10.06,15.38-10.06,25.12v350.92c0,12.55,4.52,23.43,13.44,32.33,8.89,8.91,19.77,13.43,32.32,13.43h209.73c9.74,0,18.2-3.39,25.13-10.08,7.02-6.75,10.59-15.18,10.59-25.05s-3.53-18.29-10.48-25.24c-6.94-6.95-15.44-10.48-25.24-10.48Z"/><path class="cls-1" d="m3057.59,349.84c-9.87,0-18.3,3.57-25.06,10.6-6.67,6.93-10.06,15.38-10.06,25.12v253.44c0,9.81,3.43,18.2,10.19,24.95,6.75,6.75,15.14,10.18,24.94,10.18s18.17-3.39,25.12-10.06c7.03-6.77,10.6-15.2,10.6-25.06v-253.44c0-10.18-3.42-18.77-10.18-25.53-6.78-6.76-15.37-10.19-25.54-10.19Z"/><path class="cls-1" d="m3059.95,228.73h-3.54c-10.58,0-19.77,3.82-27.31,11.36-7.54,7.54-11.36,16.73-11.36,27.31v2.36c0,10.58,3.82,19.77,11.36,27.31,7.54,7.54,16.73,11.37,27.31,11.37h3.54c10.58,0,19.77-3.82,27.31-11.37,7.54-7.54,11.36-16.73,11.36-27.31v-2.36c0-10.58-3.82-19.77-11.36-27.31-7.54-7.54-16.73-11.36-27.31-11.36Z"/><path class="cls-1" d="m3328.16,352.79h-65.31v-23.95c0-16.89,3.24-28.81,9.38-34.5,6.4-5.94,16.68-8.95,30.53-8.95.44.02,2.96.22,14.39,1.64,5.21,1.26,10.3,1.9,15.14,1.9,8.3,0,15.55-3.17,21.53-9.43,5.88-6.15,8.87-13.4,8.87-21.56,0-6.06-1.79-11.76-5.33-16.93-3.4-4.94-7.76-8.76-12.97-11.38-16.9-8.45-35.48-12.72-55.23-12.72-16.24,0-31.95,3.79-46.7,11.26-15.07,7.65-27.41,19.94-36.68,36.54-9.15,16.38-13.78,37.36-13.78,62.36v25.72h-26.31c-8.55,0-16,2.98-22.15,8.87-6.26,6-9.43,13.64-9.43,22.72s3.13,16.13,9.3,22.29c6.16,6.16,13.66,9.29,22.28,9.29h26.31v223.04c0,9.81,3.43,18.2,10.19,24.95,6.75,6.75,15.14,10.18,24.94,10.18s18.17-3.39,25.12-10.06c7.03-6.77,10.6-15.2,10.6-25.06v-223.04h65.31c9.08,0,16.73-3.17,22.71-9.43,5.88-6.15,8.87-13.6,8.87-22.15,0-9-3.03-16.59-8.99-22.58-5.99-5.98-13.59-9.01-22.59-9.01Z"/><path class="cls-1" d="m3648.9,529.13c6.49-6.74,9.77-15.09,9.77-24.83,0-27.94-5.85-54.14-17.4-77.88-11.68-23.98-29.02-43.44-51.53-57.82-22.56-14.41-49.55-21.72-80.22-21.72-32.72,0-60.78,7.86-83.4,23.35-22.53,15.43-39.44,35.94-50.27,60.96-10.66,24.59-16.07,51.77-16.07,80.79,0,51.72,14.44,92.6,42.93,121.49,28.5,28.93,68.41,43.6,118.62,43.6,24.3,0,44.58-2.3,60.27-6.83,15.53-4.5,31.45-11.31,47.32-20.26,16.3-9.41,19.7-21.12,19.7-29.3,0-9.02-3.41-16.91-9.85-22.83-6.34-5.81-13.85-8.75-22.32-8.75-5.24,0-10.1,1.1-14.44,3.26-11.24,5.62-22.89,9.98-34.62,12.95-11.64,2.96-25.54,4.46-41.32,4.46-28.82,0-51.36-7.03-67-20.89-13.82-12.25-22.53-28.49-26.47-49.46h190.36c10.64,0,19.37-3.47,25.95-10.3Zm-175.32-111.33c11.79-5.54,23.88-8.34,35.95-8.34s24.16,2.81,35.95,8.34c11.54,5.42,21.42,14.08,29.36,25.73,6.54,9.59,10.8,21.37,12.7,35.09h-155.44c1.87-13.75,6.05-25.55,12.46-35.16,7.74-11.61,17.5-20.25,29.02-25.66Z"/><path class="cls-1" d="m196.25,394.16c.44,8.9,1.1,17.58,2.02,26.13.88,8.28,1.97,16.44,3.33,24.46,3.02,18.64,7.2,36.47,12.58,53.64.87,2.77,5.01,1.97,4.8-.92-2.25-32.08-.24-65.77,5.98-101.64,2.59-15.08,5.92-30.51,10-46.43.88-3.33,1.75-6.71,2.67-10.08,3.29-12.14,5.74-23.41,7.41-33.89l.04-.04c7.35-45.86.27-76.22-10.28-95.96-7.65-14.32-28.65-12.78-34.08,2.53-.05.15-.1.29-.16.44-1.61,4.55-2.31,9.37-2.04,14.18.84,14.75,2.39,49.15.17,72.85-3.16,33.76-4.03,65.23-2.46,94.73Z"/><path class="cls-1" d="m115.33,410.81v.04c2.19,10.57,4.69,20.87,7.54,31.04,2.72,9.78,5.75,19.33,9.12,28.8v.04c5.48,15.65,11.88,30.91,19.2,45.94v.09h.04c3.68,7.58,7.58,15.12,11.75,22.62,16.32,29.49,34.85,49.05,52.97,61.94.03.02-14.31-10.1.08.05,7.86,5.54,15.42,9.58,20.89,12.19,2.31,1.1,4.52-1.57,3.06-3.67-25.73-36.81-44.16-76.16-55.73-119.51-2.1-7.8-3.99-15.78-5.61-23.89-1.67-8.11-3.11-16.35-4.3-24.77-6.36-43.71-6.79-91.45-1.8-144.58v-.18c1.67-17.62,2.11-33.58,1.58-48-.4-11.7-1.45-22.4-2.98-32.18v-.04c-6.58-41.16-22.24-66.16-37.71-81.25-10.85-10.58-29.04-4.86-31.63,10.07-1.12,6.48-2.32,13.58-3.58,21.21-2.87,17.46-2.75,35.3.59,52.68,4,20.84,6.24,45.03,5.95,73.08-.39,42.39,3.03,81.5,10.57,118.28Z"/><path class="cls-1" d="m332,472.6c-6.44-12.51-24.11-12.38-30.69.06-30.13,56.99,17.15,157.36,17.73,158.58h0c3.64,7.6-.7,16.61-8.9,18.5h0c-.09.04-.92.22-2.37.44-1.75.31-4.43.66-7.85.96-2.59.18-5.66.35-9.07.35-.13-.09-.18-.13-.22-.22,0,.04.04.13.09.22-1.97.04-4.12,0-6.36-.04-2.15-.09-4.38-.22-6.75-.39h-.04c-.35-.04-.7-.09-1.1-.13-1.18-.09-2.41-.22-3.68-.35h-.04c-1.58-.18-3.16-.39-4.78-.66h-.04c-.13,0-.22,0-.35-.04-1.84-.26-3.73-.57-5.61-.96-10.44-1.93-22.01-5.26-34.06-10.65-.04,0-.04-.04-.09-.04-8.2-3.68-16.57-8.29-25.03-14.07-13.41-9.21-26.96-21.39-39.81-37.44-5.96-7.41-11.75-15.65-17.32-24.81-1.93-3.16-3.81-6.4-5.7-9.78-3.2-5.79-6.27-11.57-9.21-17.4v-.04c-1.97-3.9-3.9-7.8-5.79-11.79-2.98-6.36-5.83-12.76-8.51-19.24v-.04c-4.12-9.78-7.89-19.68-11.27-29.77-16.83-49.45-25.51-102.23-26.65-160.97-.13-6.75-.18-13.59-.09-20.52.22-21.92-1.18-41.08-3.81-57.91-2.06-13.33-4.87-25.12-8.24-35.64-8.99-28.06-21.89-46.68-34.76-59.01C19.64,128.27-.26,136.86,0,153.48c1.38,89.05,7.41,272.6,33.3,364.13,40.55,143.53,115.51,234.05,222.87,269.12,72.33,23.63,135.2,12.93,146.82,10.57,53.68-35.3-9.33-204.93-70.99-324.7Z"/><path class="cls-1" d="m744.32,394.16c-.44,8.9-1.1,17.58-2.02,26.13-.88,8.28-1.97,16.44-3.33,24.46-3.02,18.64-7.2,36.47-12.58,53.64-.87,2.77-5.01,1.97-4.8-.92,2.25-32.08.24-65.77-5.98-101.64-2.59-15.08-5.92-30.51-10-46.43-.88-3.33-1.75-6.71-2.67-10.08-3.29-12.14-5.74-23.41-7.41-33.89l-.04-.04c-7.35-45.84-.28-76.2,10.26-95.94,7.65-14.33,28.67-12.78,34.1,2.53,0,.02.02.05.03.07,1.63,4.59,2.29,9.5,1.78,14.34-2.23,21.04-2.39,45.23.21,73.03,3.16,33.76,4.03,65.23,2.46,94.73Z"/><path class="cls-1" d="m825.25,410.81v.04c-2.19,10.57-4.69,20.87-7.54,31.04-2.72,9.78-5.75,19.33-9.12,28.8v.04c-5.48,15.65-11.88,30.91-19.2,45.94v.09h-.04c-3.68,7.58-7.58,15.12-11.75,22.62-16.32,29.49-34.85,49.05-52.97,61.94-.03.02,14.31-10.1-.08.05-7.86,5.54-15.42,9.58-20.89,12.19-2.31,1.1-4.52-1.57-3.06-3.67,25.73-36.81,44.16-76.16,55.73-119.51,2.1-7.8,3.99-15.78,5.61-23.89,1.67-8.11,3.11-16.35,4.3-24.77,6.36-43.71,6.79-91.45,1.8-144.58v-.18c-1.67-17.62-2.11-33.58-1.58-48,.4-11.7,1.45-22.4,2.98-32.18v-.04c6.58-41.16,22.24-66.16,37.71-81.25,10.85-10.58,29.04-4.86,31.63,10.07,1.12,6.48,2.32,13.58,3.58,21.21,2.87,17.46,2.75,35.3-.59,52.68-4,20.84-6.24,45.03-5.95,73.08.39,42.39-3.03,81.5-10.57,118.28Z"/><path class="cls-1" d="m592.13,472.6c6.44-12.51,24.11-12.38,30.69.06,30.13,56.99-17.15,157.36-17.73,158.58h0c-3.64,7.6.7,16.61,8.9,18.5h0c.09.04.92.22,2.37.44,1.75.31,4.43.66,7.85.96,2.59.18,5.66.35,9.07.35.13-.09.18-.13.22-.22,0,.04-.04.13-.09.22,1.97.04,4.12,0,6.36-.04,2.15-.09,4.38-.22,6.75-.39h.04c.35-.04.7-.09,1.1-.13,1.18-.09,2.41-.22,3.68-.35h.04c1.58-.18,3.16-.39,4.78-.66h.04c.13,0,.22,0,.35-.04,1.84-.26,3.73-.57,5.61-.96,10.44-1.93,22.01-5.26,34.06-10.65.04,0,.04-.04.09-.04,8.2-3.68,16.57-8.29,25.03-14.07,13.41-9.21,26.96-21.39,39.81-37.44,5.96-7.41,11.75-15.65,17.32-24.81,1.93-3.16,3.81-6.4,5.7-9.78,3.2-5.79,6.27-11.57,9.21-17.4v-.04c1.97-3.9,3.9-7.8,5.79-11.79,2.98-6.36,5.83-12.76,8.51-19.24v-.04c4.12-9.78,7.89-19.68,11.27-29.77,16.83-49.45,25.51-102.23,26.65-160.97.13-6.75.18-13.59.09-20.52-.22-21.92,1.18-41.08,3.81-57.91,2.06-13.33,4.87-25.12,8.24-35.64,8.99-28.06,21.89-46.68,34.76-59.01,12-11.49,31.9-2.9,31.64,13.71-1.38,89.05-7.41,272.6-33.3,364.13-40.55,143.53-115.51,234.05-222.87,269.12-72.33,23.63-135.2,12.93-146.82,10.57-33.31-21.9-21.7-95.5,6.64-176.83,17.34-49.76,40.94-102.41,64.35-147.87Z"/><path class="cls-2" d="m628.18,390.95l-6.04,3.05c-60.81,30.88-110.3,80.32-141.13,141.13l-2.87,5.63c-6.77,13.35-25.85,13.35-32.62,0l-2.81-5.63c-30.88-60.81-80.32-110.24-141.19-141.13l-5.51-2.81c-13.4-6.76-13.4-25.86,0-32.62l5.51-2.87c60.87-30.82,110.3-80.32,141.19-141.13l2.57-5.09c6.82-13.41,26.04-13.29,32.74.24,15.08,30.7,34.83,58.53,58.41,82.65,23.58,24.18,50.93,44.65,81.22,60.39l10.71,5.63c13.17,6.88,13.05,25.86-.18,32.56Z"/><path class="cls-2" d="m310.21,53l-1.7.85c-17.14,8.55-31.1,22.24-39.79,39.07l-.81,1.56c-1.91,3.69-7.29,3.69-9.2,0l-.79-1.56c-8.71-16.83-22.65-30.52-39.81-39.07l-1.55-.78c-3.78-1.87-3.78-7.16,0-9.03l1.55-.8c17.16-8.53,31.1-22.24,39.81-39.07l.73-1.41c1.92-3.71,7.34-3.68,9.23.07,4.25,8.5,9.82,16.2,16.47,22.88,6.65,6.69,14.36,12.36,22.9,16.72l3.02,1.56c3.71,1.91,3.68,7.16-.05,9.01Z"/><path class="cls-2" d="m419.24,164.4l-2.58,1.22c-25.96,12.33-47.09,32.08-60.24,56.36l-1.23,2.25c-2.89,5.33-11.04,5.33-13.92,0l-1.2-2.25c-13.18-24.28-34.29-44.03-60.27-56.36l-2.35-1.12c-5.72-2.7-5.72-10.33,0-13.03l2.35-1.15c25.98-12.31,47.09-32.08,60.27-56.36l1.1-2.03c2.91-5.35,11.11-5.31,13.98.1,6.44,12.26,14.87,23.38,24.93,33.01,10.07,9.66,21.74,17.83,34.67,24.12l4.57,2.25c5.62,2.75,5.57,10.33-.08,13Z"/></g></svg>