<svg width="101" height="101" viewBox="0 0 101 101" fill="none" xmlns="http://www.w3.org/2000/svg">
<g clip-path="url(#clip0_12213_15031)">
<rect x="0.5" y="0.5" width="100" height="100" fill="#68A15B"/>
<path d="M80.3224 45.0715L77.8193 46.323C75.2467 47.6142 73.6277 50.2365 73.6277 53.1071V62.6028C73.6277 64.5099 72.545 66.2581 70.8366 67.1123L60.7051 72.1781V66.9335L65.5622 64.5C68.1348 63.2187 69.7539 60.5865 69.7539 57.7159V54.9149C69.7539 54.3884 69.1976 54.0408 68.7308 54.2792L57.179 60.0501C54.6064 61.3314 52.9873 63.9636 52.9873 66.8342V72.2774C52.9873 78.4158 57.765 83.4418 63.8041 83.8292C64.2114 83.859 64.569 83.5312 64.569 83.124V78.8727L73.8859 74.2143C73.9555 74.1745 74.025 74.1447 74.0945 74.105L77.1538 72.5754C79.7264 71.294 81.3454 68.6618 81.3454 65.7913V45.6972C81.3554 45.1708 80.7992 44.8331 80.3224 45.0715Z" fill="white"/>
<path d="M44.0974 60.0598L32.5456 54.2888C32.0788 54.0504 31.5225 54.3981 31.5225 54.9245V57.7255C31.5225 60.5961 33.1416 63.2283 35.7142 64.5096L40.5713 66.9432V72.1877L30.4398 67.122C28.7314 66.2678 27.6487 64.5196 27.6487 62.6125V53.1167C27.6487 50.2462 26.0297 47.614 23.4571 46.3326L20.954 45.0811C20.4773 44.8427 19.931 45.1904 19.931 45.7168V65.8108C19.931 68.6814 21.55 71.3136 24.1226 72.5949L27.1819 74.1246C27.2514 74.1643 27.321 74.1941 27.3905 74.2339L36.7075 78.8923V83.1336C36.7075 83.5409 37.0551 83.8687 37.4723 83.8389C43.5114 83.4515 48.2891 78.4255 48.2891 72.287V66.8439C48.2891 63.9733 46.67 61.3411 44.0974 60.0598Z" fill="white"/>
<path d="M54.3083 51.0107C55.6393 48.9149 57.8047 46.7694 61.3308 45.4682C61.6884 45.3391 61.9764 45.7861 61.7082 46.0543C60.0296 47.6932 56.9802 50.9909 55.7585 54.3779C55.54 54.9739 56.1757 55.5301 56.7419 55.252L67.5587 49.8486C70.5385 48.3587 72.4158 45.3192 72.4158 41.9917V34.0058C72.4158 33.4793 71.8596 33.1317 71.3927 33.3701L57.8543 40.1343C54.8844 41.6242 52.9972 44.6637 52.9972 47.9911V50.6333C52.9972 51.3484 53.9209 51.6166 54.3083 51.0107Z" fill="white"/>
<path d="M43.4419 40.1343L29.9035 33.3701C29.4366 33.1317 28.8804 33.4793 28.8804 34.0058V41.9917C28.8804 45.3192 30.7577 48.3587 33.7375 49.8486L44.604 55.2818C45.1702 55.5699 45.8059 55.0136 45.5873 54.4077C44.3656 51.0107 41.3063 47.7031 39.6277 46.0642C39.3495 45.796 39.6376 45.349 39.9952 45.4781C43.5015 46.7694 45.6569 48.8851 46.9879 50.9611C47.3653 51.557 48.299 51.2888 48.299 50.5737V47.9812C48.2891 44.6637 46.4118 41.6242 43.4419 40.1343Z" fill="white"/>
<path d="M53.5335 38.8529L55.838 37.2041C59.6025 34.5123 60.3772 29.228 57.5365 25.5728L51.2192 17.4477C50.9312 17.0802 50.3849 17.0802 50.0968 17.4477L43.7795 25.5728C40.9388 29.228 41.7036 34.5123 45.4781 37.2041L47.8023 38.8628C48.2394 39.1707 48.8453 38.9125 48.9148 38.3861L50.3054 28.6122C50.365 28.2049 50.951 28.2049 51.0106 28.6122L52.431 38.3761C52.4906 38.9026 53.0965 39.1608 53.5335 38.8529Z" fill="white"/>
</g>
<defs>
<clipPath id="clip0_12213_15031">
<rect x="0.5" y="0.5" width="100" height="100" rx="21.2963" fill="white"/>
</clipPath>
</defs>
</svg>
