<svg width="303" height="57" viewBox="0 0 303 57" fill="none" xmlns="http://www.w3.org/2000/svg">
<g filter="url(#filter0_d_8866_92406)">
<g clip-path="url(#clip0_8866_92406)">
<rect x="8" y="8.5" width="40" height="40" fill="#EEF4FD"/>
<path d="M20.7045 24.1312C21.1006 23.505 21.8 23.136 22.5411 23.1622C24.1496 23.2191 25.0899 24.9976 24.2301 26.3568L19.9995 33.2269C19.6034 33.8532 18.904 34.2222 18.1629 34.196C16.5544 34.1391 15.6141 32.3606 16.4739 31.0014L20.7045 24.1312Z" fill="#1A52F5"/>
<path fill-rule="evenodd" clip-rule="evenodd" d="M32.0551 27.8585C31.2956 26.8717 29.7831 26.9468 29.1253 28.004L25.8644 33.2457C25.249 34.2348 23.9475 34.5383 22.9573 33.9237C21.967 33.309 21.6631 32.0089 22.2785 31.0198L25.5395 25.7782C27.7536 22.2192 32.8454 21.9662 35.4022 25.2882L39.4146 30.6754C40.1252 31.5986 39.952 32.9224 39.0277 33.6322C38.1034 34.3419 36.7782 34.1689 36.0676 33.2457L32.0551 27.8585Z" fill="#1A52F5"/>
<path fill-rule="evenodd" clip-rule="evenodd" d="M26.3973 26.5488C27.3464 25.8725 28.6647 26.0928 29.3417 27.0409L32.0062 30.772C32.6832 31.7201 32.4627 33.0368 31.5135 33.7131C30.5644 34.3893 29.2462 34.169 28.5692 33.221L25.9047 29.4898C25.2276 28.5418 25.4482 27.225 26.3973 26.5488Z" fill="#1A52F5"/>
</g>
</g>
<path d="M62.3083 38.5V18.9H66.5643L72.8083 31.332L78.9683 18.9H83.2243V38.5H79.6403V24.976L74.1803 35.7H71.3523L65.8923 24.976V38.5H62.3083ZM91.731 38.836C90.5364 38.836 89.5564 38.6493 88.791 38.276C88.0257 37.884 87.4564 37.3707 87.083 36.736C86.7097 36.1013 86.523 35.4013 86.523 34.636C86.523 33.348 87.027 32.3027 88.035 31.5C89.043 30.6973 90.555 30.296 92.571 30.296H96.099V29.96C96.099 29.008 95.8284 28.308 95.287 27.86C94.7457 27.412 94.0737 27.188 93.271 27.188C92.543 27.188 91.9084 27.3653 91.367 27.72C90.8257 28.056 90.4897 28.56 90.359 29.232H86.859C86.9524 28.224 87.2884 27.3467 87.867 26.6C88.4644 25.8533 89.2297 25.284 90.163 24.892C91.0964 24.4813 92.1417 24.276 93.299 24.276C95.2777 24.276 96.8364 24.7707 97.975 25.76C99.1137 26.7493 99.683 28.1493 99.683 29.96V38.5H96.631L96.295 36.26C95.8844 37.0067 95.3057 37.6227 94.559 38.108C93.831 38.5933 92.8884 38.836 91.731 38.836ZM92.543 36.036C93.5697 36.036 94.363 35.7 94.923 35.028C95.5017 34.356 95.8657 33.5253 96.015 32.536H92.963C92.011 32.536 91.3297 32.7133 90.919 33.068C90.5084 33.404 90.303 33.824 90.303 34.328C90.303 34.8693 90.5084 35.2893 90.919 35.588C91.3297 35.8867 91.871 36.036 92.543 36.036ZM103.103 38.5V24.612H106.295L106.631 27.216C107.135 26.32 107.817 25.6107 108.675 25.088C109.553 24.5467 110.579 24.276 111.755 24.276V28.056H110.747C109.963 28.056 109.263 28.1773 108.647 28.42C108.031 28.6627 107.546 29.0827 107.191 29.68C106.855 30.2773 106.687 31.108 106.687 32.172V38.5H103.103ZM114.205 38.5V18.34H117.789V30.24L122.717 24.612H126.973L121.289 30.94L127.897 38.5H123.417L117.789 31.528V38.5H114.205ZM135.718 38.836C134.318 38.836 133.077 38.5373 131.994 37.94C130.912 37.3427 130.062 36.5027 129.446 35.42C128.83 34.3373 128.522 33.0867 128.522 31.668C128.522 30.2307 128.821 28.952 129.418 27.832C130.034 26.712 130.874 25.844 131.938 25.228C133.021 24.5933 134.29 24.276 135.746 24.276C137.109 24.276 138.313 24.5747 139.358 25.172C140.404 25.7693 141.216 26.5907 141.794 27.636C142.392 28.6627 142.69 29.8107 142.69 31.08C142.69 31.2853 142.681 31.5 142.662 31.724C142.662 31.948 142.653 32.1813 142.634 32.424H132.078C132.153 33.5067 132.526 34.356 133.198 34.972C133.889 35.588 134.72 35.896 135.69 35.896C136.418 35.896 137.025 35.7373 137.51 35.42C138.014 35.084 138.388 34.6547 138.63 34.132H142.27C142.009 35.0093 141.57 35.812 140.954 36.54C140.357 37.2493 139.61 37.8093 138.714 38.22C137.837 38.6307 136.838 38.836 135.718 38.836ZM135.746 27.188C134.869 27.188 134.094 27.44 133.422 27.944C132.75 28.4293 132.321 29.176 132.134 30.184H139.05C138.994 29.2693 138.658 28.5413 138.042 28C137.426 27.4587 136.661 27.188 135.746 27.188ZM151.647 38.5C150.191 38.5 149.024 38.1453 148.147 37.436C147.269 36.7267 146.831 35.4667 146.831 33.656V27.608H144.451V24.612H146.831L147.251 20.888H150.415V24.612H154.167V27.608H150.415V33.684C150.415 34.356 150.555 34.8227 150.835 35.084C151.133 35.3267 151.637 35.448 152.347 35.448H154.083V38.5H151.647ZM157.888 38.5V27.608H155.984V24.612H157.888V22.988C157.888 21.308 158.308 20.1133 159.148 19.404C160.006 18.6947 161.164 18.34 162.62 18.34H164.16V21.392H163.18C162.564 21.392 162.125 21.5133 161.864 21.756C161.602 21.9987 161.472 22.4093 161.472 22.988V24.612H164.468V27.608H161.472V38.5H157.888ZM169.042 44.66L172.262 37.576H171.422L166.018 24.612H169.91L173.802 34.384L177.862 24.612H181.67L172.85 44.66H169.042ZM184.013 38.5V24.612H187.177L187.457 26.964C187.887 26.1427 188.503 25.4893 189.305 25.004C190.127 24.5187 191.088 24.276 192.189 24.276C193.907 24.276 195.241 24.8173 196.193 25.9C197.145 26.9827 197.621 28.5693 197.621 30.66V38.5H194.037V30.996C194.037 29.8013 193.795 28.8867 193.309 28.252C192.824 27.6173 192.068 27.3 191.041 27.3C190.033 27.3 189.203 27.6547 188.549 28.364C187.915 29.0733 187.597 30.0627 187.597 31.332V38.5H184.013ZM207.433 38.836C206.126 38.836 204.959 38.5187 203.933 37.884C202.906 37.2493 202.094 36.3813 201.497 35.28C200.899 34.1787 200.601 32.928 200.601 31.528C200.601 30.128 200.899 28.8867 201.497 27.804C202.094 26.7027 202.906 25.844 203.933 25.228C204.959 24.5933 206.126 24.276 207.433 24.276C208.478 24.276 209.393 24.472 210.177 24.864C210.961 25.256 211.595 25.8067 212.081 26.516V18.34H215.665V38.5H212.473L212.081 36.512C211.633 37.128 211.035 37.6693 210.289 38.136C209.561 38.6027 208.609 38.836 207.433 38.836ZM208.189 35.7C209.346 35.7 210.289 35.3173 211.017 34.552C211.763 33.768 212.137 32.7693 212.137 31.556C212.137 30.3427 211.763 29.3533 211.017 28.588C210.289 27.804 209.346 27.412 208.189 27.412C207.05 27.412 206.107 27.7947 205.361 28.56C204.614 29.3253 204.241 30.3147 204.241 31.528C204.241 32.7413 204.614 33.74 205.361 34.524C206.107 35.308 207.05 35.7 208.189 35.7ZM219.314 38.5V24.612H222.506L222.842 27.216C223.346 26.32 224.027 25.6107 224.886 25.088C225.763 24.5467 226.79 24.276 227.966 24.276V28.056H226.958C226.174 28.056 225.474 28.1773 224.858 28.42C224.242 28.6627 223.757 29.0827 223.402 29.68C223.066 30.2773 222.898 31.108 222.898 32.172V38.5H219.314Z" fill="#F9F5FE"/>
<defs>
<filter id="filter0_d_8866_92406" x="0" y="0.5" width="56" height="56" filterUnits="userSpaceOnUse" color-interpolation-filters="sRGB">
<feFlood flood-opacity="0" result="BackgroundImageFix"/>
<feColorMatrix in="SourceAlpha" type="matrix" values="0 0 0 0 0 0 0 0 0 0 0 0 0 0 0 0 0 0 127 0" result="hardAlpha"/>
<feOffset/>
<feGaussianBlur stdDeviation="4"/>
<feComposite in2="hardAlpha" operator="out"/>
<feColorMatrix type="matrix" values="0 0 0 0 0 0 0 0 0 0 0 0 0 0 0 0 0 0 0.1 0"/>
<feBlend mode="normal" in2="BackgroundImageFix" result="effect1_dropShadow_8866_92406"/>
<feBlend mode="normal" in="SourceGraphic" in2="effect1_dropShadow_8866_92406" result="shape"/>
</filter>
<clipPath id="clip0_8866_92406">
<rect x="8" y="8.5" width="40" height="40" rx="12.2039" fill="white"/>
</clipPath>
</defs>
</svg>
