<svg width="755" height="127" viewBox="0 0 755 127" fill="none" xmlns="http://www.w3.org/2000/svg">
<path d="M193.543 38.3062H207.931C207.908 40.7121 208.394 42.262 209.388 42.9559C210.231 43.4537 211.184 43.7345 212.162 43.773C213.295 43.8541 216.858 43.9189 222.849 43.9675C229.134 43.9416 232.907 43.9011 234.167 43.8459C235.193 43.8282 236.209 43.6392 237.173 43.2866C238.266 42.8343 238.815 41.6038 238.815 39.6048C238.815 38.1522 238.428 37.1795 237.654 36.6866C236.88 36.1938 235.303 35.9247 232.923 35.8793C231.093 35.8793 227.207 35.7366 221.265 35.4513C215.196 35.1659 211.246 35.0038 209.413 34.9649C205.85 34.8482 203.108 34.5093 201.184 33.9484C199.459 33.4915 197.909 32.5317 196.73 31.1907C194.897 29.0961 193.98 25.5942 193.98 20.6852C193.98 15.173 195.028 11.2821 197.123 9.01238C198.716 7.25174 201.168 6.12661 204.477 5.637C207.787 5.14739 214.511 4.90259 224.651 4.90259C231.817 4.90259 236.851 5.10524 239.753 5.51055C244.225 6.13309 247.301 7.37819 248.982 9.24584C250.663 11.1135 251.497 14.2651 251.484 18.7008C251.484 19.1094 251.484 19.8681 251.445 20.9916H237.047C237.058 20.0504 236.945 19.1118 236.712 18.1998C236.504 17.6931 236.124 17.2763 235.638 17.0228C234.992 16.6386 233.865 16.3954 232.238 16.2884C230.611 16.1814 227.196 16.1279 221.96 16.1279C215.648 16.1279 211.804 16.3241 210.428 16.7164C209.052 17.1088 208.36 18.1998 208.354 19.9897C208.354 21.7017 209.043 22.7522 210.428 23.1316C211.571 23.4558 216.819 23.7542 226.171 24.0265C234.05 24.2632 239.316 24.5437 241.968 24.8679C244.625 25.1889 246.733 25.8018 248.307 26.7064C250.036 27.7076 251.375 29.2661 252.105 31.1275C252.844 32.9984 253.213 35.6847 253.213 39.1866C253.213 43.7876 252.594 47.2084 251.357 49.4489C250.474 51.0491 249.116 52.3355 247.471 53.1307C245.82 53.9413 243.493 54.4893 240.491 54.7746C237.282 55.0632 231.291 55.2058 222.518 55.2026C215.187 55.2026 209.772 55.0129 206.275 54.6336C202.777 54.2542 200.148 53.5749 198.386 52.5957C196.683 51.6871 195.341 50.2234 194.583 48.447C193.88 46.7285 193.529 44.1183 193.529 40.6165L193.543 38.3062Z" fill="#231F20"/>
<path d="M270.112 5.67102H329.092V18.1074H307.418V54.473H291.816V18.1074H270.112V5.67102Z" fill="#231F20"/>
<path d="M393.411 54.473L389.233 46.2048H356.994L352.817 54.473H335.859L361.706 5.67102H384.769L410.262 54.473H393.411ZM384.021 35.5047L374.632 17.0228H371.669L362.279 35.5047H384.021Z" fill="#231F20"/>
<path d="M427.098 5.67102H442.7V42.022H477.368V54.473H427.098V5.67102Z" fill="#231F20"/>
<path d="M495.385 5.67102H511.011V42.022H545.675V54.473H495.385V5.67102Z" fill="#231F20"/>
<path d="M563.667 5.67102H579.269V54.473H563.667V5.67102Z" fill="#231F20"/>
<path d="M633.202 4.95605C643.721 4.95605 650.955 5.21707 654.906 5.7391C660.596 6.50108 664.083 9.2069 665.369 13.8566C666.247 17.0471 666.687 22.4442 666.69 30.0477C666.693 37.6512 666.253 43.0612 665.369 46.2777C664.074 50.9274 660.586 53.6316 654.906 54.3903C650.955 54.9156 643.768 55.1782 633.343 55.1782C622.731 55.1782 615.445 54.9156 611.484 54.3903C605.798 53.6316 602.31 50.9274 601.021 46.2777C600.144 43.0807 599.703 37.5685 599.7 29.7413C599.7 22.3096 600.141 17.0082 601.021 13.8371C602.317 9.18744 605.804 6.48162 611.484 5.71965C615.422 5.21383 622.662 4.9593 633.202 4.95605ZM633.236 17.6454C625.358 17.6454 620.621 17.848 619.028 18.2533C618.199 18.4229 617.429 18.8079 616.796 19.3696C616.162 19.9313 615.687 20.6501 615.419 21.4536C614.849 23.1072 614.564 26.4016 614.564 31.3366C614.564 34.3131 614.726 36.4694 615.05 37.8052C615.646 40.2857 617.443 41.7043 620.442 42.0609C622.657 42.3463 626.954 42.4889 633.334 42.4889C639.302 42.4889 643.275 42.3819 645.254 42.1679C647.233 41.9539 648.69 41.4773 649.626 40.738C650.533 39.9868 651.151 38.9431 651.374 37.7858C651.679 36.4888 651.841 34.3618 651.86 31.4047C651.909 28.8268 651.79 26.2485 651.506 23.686C651.381 22.3618 650.94 21.0871 650.218 19.9702C649.431 18.9196 648.136 18.2711 646.332 18.0247C644.529 17.7783 640.163 17.6518 633.236 17.6454Z" fill="#231F20"/>
<path d="M687.17 5.67102H713.196L738.722 42.061H740.257L739.898 5.67102H755V54.473H729.187L703.554 18.0831H701.946L702.272 54.473H687.17V5.67102Z" fill="#231F20"/>
<path d="M193.543 85.0217H224V91.4953H201.801V95.4689H222.873V101.519H201.801V105.94H224.146V112.555H193.543V85.0217Z" fill="#231F20"/>
<path d="M250.386 85.0217H261.85L270.326 94.6858L278.87 85.0217H290.48L277.248 98.64L291.126 112.56H279.332L270.326 102.657L261.383 112.555H249.317L263.404 98.6351L250.386 85.0217Z" fill="#231F20"/>
<path d="M317.541 112.555V85.0217H336.374C338.781 84.9702 341.188 85.0449 343.587 85.2454C346.314 85.6118 348.157 86.4889 349.115 87.8767C350.074 89.2644 350.559 91.7481 350.572 95.3278C350.572 98.7324 350.177 101.12 349.387 102.492C348.859 103.405 348.073 104.141 347.128 104.608C345.873 105.168 344.53 105.509 343.16 105.614C341.965 105.751 339.737 105.819 336.476 105.819H325.94V112.555H317.541ZM325.92 98.9366H336.393C338.304 98.9366 339.47 98.9091 339.891 98.854C340.287 98.8226 340.673 98.7135 341.027 98.5329C341.448 98.3167 341.766 97.9425 341.911 97.4921C342.106 96.7863 342.187 96.0543 342.154 95.3229C342.194 94.592 342.092 93.8602 341.853 93.1683C341.749 92.9431 341.6 92.7409 341.417 92.5739C341.233 92.4068 341.018 92.2782 340.784 92.1956C340.41 92.0497 338.943 91.9573 336.413 91.9135H325.94L325.92 98.9366Z" fill="#231F20"/>
<path d="M378.066 112.555V85.0217H398.317C403.071 85.0217 405.917 85.072 406.856 85.1725C407.823 85.2706 408.755 85.5919 409.577 86.1112C410.585 86.6947 411.35 87.6216 411.733 88.723C412.122 89.8319 412.316 91.5763 412.316 93.9563C412.365 95.4395 412.239 96.9234 411.942 98.3774C411.73 99.2603 411.239 100.051 410.543 100.634C409.557 101.336 408.405 101.767 407.201 101.884C408.96 102.02 410.223 102.521 410.985 103.397C411.44 103.94 411.733 104.601 411.831 105.303C411.991 106.861 412.053 108.427 412.015 109.992V112.555H403.757V111.096C403.784 110 403.726 108.904 403.582 107.818C403.514 107.268 403.295 106.748 402.951 106.315C402.602 105.975 402.152 105.76 401.669 105.702C400.539 105.588 399.403 105.544 398.268 105.571H386.464V112.57L378.066 112.555ZM386.445 98.6789H398.229C400.284 98.6351 401.508 98.6011 401.907 98.567C402.266 98.5457 402.616 98.439 402.927 98.2558C403.295 98.018 403.566 97.6554 403.689 97.2344C403.863 96.5664 403.938 95.8766 403.913 95.1868C403.942 94.5062 403.856 93.8256 403.66 93.1732C403.586 92.9614 403.47 92.7663 403.32 92.5994C403.17 92.4324 402.988 92.2969 402.786 92.2005C402.451 92.0546 402.092 91.9721 401.727 91.9573C401.312 91.9281 400.14 91.9071 398.21 91.8941H386.445V98.6789Z" fill="#231F20"/>
<path d="M439.946 85.0217H470.403V91.4953H448.204V95.4689H469.271V101.519H448.204V105.94H470.548V112.555H439.946V85.0217Z" fill="#231F20"/>
<path d="M496.968 103.436H505.085C505.085 104.797 505.348 105.668 505.911 106.062C506.387 106.337 506.922 106.492 507.47 106.514C508.118 106.563 510.129 106.6 513.503 106.626C517.049 106.626 519.179 106.602 519.891 106.553C520.468 106.546 521.039 106.44 521.581 106.242C522.197 105.983 522.506 105.29 522.509 104.165C522.509 103.343 522.291 102.794 521.853 102.521C521.416 102.249 520.527 102.093 519.187 102.064C518.154 102.064 515.965 101.985 512.619 101.826C509.196 101.66 506.967 101.566 505.93 101.544C504.365 101.534 502.806 101.34 501.287 100.965C500.309 100.716 499.429 100.179 498.761 99.423C497.728 98.2428 497.21 96.2665 497.206 93.4942C497.206 90.388 497.797 88.1961 498.979 86.9186C499.876 85.9264 501.261 85.2909 503.133 85.012C505.004 84.7331 508.798 84.5954 514.514 84.5986C517.358 84.5434 520.203 84.6587 523.034 84.9439C525.556 85.2941 527.287 85.9961 528.226 87.0499C529.166 88.1037 529.637 89.887 529.64 92.3999C529.64 92.6285 529.64 93.0565 529.64 93.6888H521.518C521.526 93.159 521.462 92.6306 521.329 92.1178C521.216 91.8258 521.002 91.5841 520.726 91.4369C520.125 91.1646 519.473 91.0237 518.813 91.0235C517.899 90.9586 515.956 90.9278 512.984 90.9311C509.421 90.9311 507.253 91.0429 506.479 91.2667C505.702 91.4855 505.314 92.1032 505.314 93.11C505.314 94.1168 505.702 94.6712 506.479 94.8852C507.127 95.0603 510.088 95.2225 515.364 95.3716C519.81 95.5045 522.781 95.6667 524.277 95.858C525.526 95.9653 526.741 96.3191 527.853 96.8988C528.825 97.4624 529.577 98.3406 529.985 99.389C530.465 100.855 530.677 102.395 530.612 103.937C530.612 106.53 530.262 108.46 529.562 109.724C529.067 110.627 528.303 111.353 527.376 111.801C526.129 112.337 524.797 112.651 523.442 112.73C521.625 112.892 518.248 112.973 513.309 112.973C509.17 112.973 506.115 112.865 504.143 112.647C502.171 112.433 500.684 112.049 499.693 111.5C498.731 110.989 497.973 110.163 497.546 109.16C497.148 108.187 496.954 106.728 496.954 104.744L496.968 103.436Z" fill="#231F20"/>
<path d="M557.313 103.436H565.416C565.416 104.797 565.678 105.668 566.242 106.062C566.717 106.337 567.252 106.492 567.801 106.514C568.449 106.563 570.46 106.6 573.834 106.626C577.396 106.626 579.525 106.602 580.222 106.553C580.799 106.546 581.37 106.44 581.912 106.242C582.527 105.983 582.837 105.29 582.84 104.165C582.84 103.343 582.621 102.794 582.184 102.521C581.747 102.249 580.858 102.093 579.517 102.064C578.484 102.064 576.295 101.985 572.95 101.826C569.527 101.66 567.297 101.566 566.261 101.544C564.696 101.534 563.137 101.34 561.617 100.965C560.64 100.716 559.76 100.179 559.091 99.423C558.058 98.2428 557.542 96.2665 557.542 93.4942C557.542 90.388 558.131 88.1961 559.31 86.9186C560.213 85.9458 561.593 85.2892 563.463 85.012C565.333 84.7348 569.122 84.5986 574.844 84.5986C577.689 84.5434 580.534 84.6587 583.364 84.9439C585.89 85.2941 587.623 85.9961 588.562 87.0499C589.501 88.1037 589.971 89.887 589.971 92.3999C589.971 92.6285 589.971 93.0565 589.971 93.6888H581.854C581.858 93.1589 581.792 92.6307 581.659 92.1178C581.552 91.8244 581.341 91.5805 581.067 91.432C580.465 91.1598 579.813 91.0188 579.153 91.0186C578.24 90.9538 576.306 90.923 573.353 90.9262C569.791 90.9262 567.621 91.0381 566.844 91.2618C566.067 91.4807 565.678 92.0984 565.678 93.1051C565.678 94.1119 566.067 94.6664 566.844 94.8804C567.492 95.0555 570.453 95.2176 575.728 95.3667C580.171 95.4997 583.143 95.6618 584.642 95.8531C585.891 95.9597 587.106 96.3135 588.217 96.8939C589.19 97.4585 589.943 98.3362 590.354 99.3841C590.83 100.851 591.04 102.391 590.976 103.932C590.976 106.526 590.628 108.455 589.932 109.719C589.435 110.621 588.671 111.347 587.746 111.796C586.496 112.332 585.163 112.646 583.806 112.725C581.993 112.887 578.615 112.968 573.674 112.968C569.538 112.968 566.483 112.86 564.508 112.642C562.535 112.428 561.049 112.044 560.058 111.495C559.097 110.982 558.34 110.157 557.911 109.155C557.519 108.182 557.322 106.71 557.318 104.739L557.313 103.436Z" fill="#231F20"/>
<path d="M28.5234 127L0 99.7392L45.2381 51.9342L55.8615 62.002L20.6299 99.2187L31.3747 109.486C56.0072 98.4162 74.3493 95.7558 84.1809 95.25C83.2434 58.2132 63.5364 40.8888 62.662 40.1252L60.0924 37.9366L60.0584 34.532V0L68.768 1.69742C98.7097 7.53382 120.112 28.2141 130.667 61.5205C138.376 85.8388 137.56 108.212 137.521 109.184L122.895 108.552L130.182 108.854L122.895 108.557C122.895 108.353 123.624 87.4827 116.581 65.5768C108.687 40.9569 94.6051 25.116 74.6456 18.3652V31.4193C81.7035 38.7148 100.284 61.895 98.7097 102.886L98.4037 110.78L90.5637 109.875C90.3985 109.875 68.6028 107.852 33.0409 124.831L28.5234 127Z" fill="#231F20"/>
</svg>
